<svg xmlns="http://www.w3.org/2000/svg" viewBox="0 0 53.5 20.8"><style type="text/css">  
	.st0{fill:#FFFFFF;}
	.st1{fill:#9C1E1E;}
</style><polygon class="st0" points="53.5 20.8 0 20.8 0 0 53.5 0 "/><path class="st1" d="M6.3 2.9h2.2v5.5c0.9-0.5 1.9-0.7 2.8-0.7 2.5 0 4.6 2 4.6 5 0 3.7-2.6 5-5.5 5 -1.3 0-2.8-0.3-4-0.8L6.3 2.9 6.3 2.9zM8.3 15.6c0.7 0.2 1.5 0.3 2.1 0.3 1.7 0 3.1-0.9 3.1-3.2 0-2-1.3-3-2.7-3.1 -0.8 0-1.7 0.2-2.5 0.7C8.3 10.3 8.3 15.6 8.3 15.6z"/><path class="st1" d="M26.2 13.1h-7.1c0 1.7 1.4 2.8 3.1 2.8 1.2 0.1 2.3-0.1 3.5-0.6l0.3 1.6c-1.1 0.5-2.4 0.8-3.6 0.8 -3.2 0.1-5.5-2-5.4-5.2s2.4-4.8 5-4.8C25.3 7.6 26.8 9.9 26.2 13.1zM19.2 11.6h5.3c0.1-1.4-1.1-2.2-2.5-2.2S19.5 10.1 19.2 11.6z"/><path class="st1" d="M36.8 13.1h-7.1c0 1.7 1.4 2.8 3.1 2.8 1.2 0.1 2.3-0.1 3.5-0.6l0.3 1.6c-1.1 0.5-2.4 0.8-3.6 0.8 -3.2 0.1-5.5-2-5.4-5.2s2.4-4.8 5-4.8C35.8 7.6 37.3 9.9 36.8 13.1zM29.8 11.6H35c0.1-1.4-1.1-2.2-2.5-2.2C31 9.4 30 10.1 29.8 11.6z"/><path class="st1" d="M39.4 9.6h-1.7V7.9h1.8V6.6c0-3.8 2.9-4.3 5.9-3.4l-0.3 1.5c-1.7-0.7-3.6-0.5-3.6 1.9v1.3h3.2v1.6h-3.2v7.9h-2.1C39.5 17.5 39.5 9.6 39.4 9.6z"/></svg>