<svg xmlns="http://www.w3.org/2000/svg" viewBox="0 0 272.2 43"><style type="text/css">  
	.st0{fill:#FFFFFF;}
</style><path class="st0" d="M27.7 20.5c3.3 1.7 5.1 5.1 5.1 8.8 0 7.1-4.6 12.5-13 12.5H0V0.8h18.2c7.6 0 13 5 13 12.6C31.2 15.9 29.8 18.9 27.7 20.5zM10.8 10.1V17h6.6c2.1 0 3.1-1.6 3.2-3.2 0.1-1.8-1-3.6-3.2-3.6H10.8zM10.8 25.7v6.8H19c2.1 0 3.1-1.5 3.2-3.2 0.1-1.2-0.5-2.5-1.5-3.2 -0.5-0.2-1.1-0.4-1.8-0.4H10.8z"/><path class="st0" d="M56.8 33.4v8.7H35.6v-8.7h5.2V9.6h-4.8V0.9h20.3v8.7h-4.8v23.7H56.8z"/><path class="st0" d="M79.5 0.4c8.2 0 16.7 4.2 18.9 14.2H87.9c-1.8-3.3-4.4-4.5-8.4-4.5 -6.6 0-10.3 5.2-10.3 11.5 0 6.9 4 11.3 10.3 11.3 4.2 0 6.9-1.1 8.9-5h-8.8v-9.1H99c0.3 4 0.2 7.9-1.1 11.9 -3 8.6-10.8 11.9-18.4 11.9 -10.5 0-21.2-6.9-21.2-21C58.4 7.5 69.1 0.4 79.5 0.4z"/><path class="st0" d="M103.4 10.3V0.9H134v9.4h-10.1v31.7h-10.4V10.3H103.4z"/><path class="st0" d="M139.7 37l-2.4 5.1h-11.2v-1.5L145 0.5h4.9l18.7 40.1v1.5h-11.1l-2.4-5.1H139.7zM143.2 28h8.5l-4.3-9.9L143.2 28z"/><path class="st0" d="M178.2 29.4c0 2.8 3.2 4.2 6.5 4.2 3.1 0 6.3-1.4 6.3-3.9 0-3.9-4.6-4.1-7.6-4.3 -7.5-0.5-15-3.5-15-12 0-8.9 7.6-13.5 16-13.5 7.9 0 16 4.5 15.8 13.5h-10.1c-0.1-2.8-2.7-4-5.6-4 -2.4 0-5.6 0.6-5.6 3.8 0 2.8 2.4 3.5 6.3 3.8 8.8 0.8 16.4 2.8 16.4 12.8 0 8.6-8.4 13.1-16.8 13.1 -8.7 0-17-4.3-16.9-13.5H178.2z"/><path class="st0" d="M201.4 10.3V0.9h30.6v9.4h-10.1v31.7h-10.4V10.3H201.4z"/><path class="st0" d="M253.3 14.6l7.5-13.6h11.4v1.6l-13.8 23.3v16.3h-10.8V25.8L233.9 2.5V0.9h11.5l7.5 13.6H253.3z"/></svg>