<svg xmlns="http://www.w3.org/2000/svg" viewBox="0 0 77 20.3"><style type="text/css">  
	.st0{fill:#FFFFFF;}
	.st1{fill:#9C1E1E;}
</style><polygon class="st0" points="77 20.3 0 20.3 0 0 77 0 "/><path class="st1" d="M10.3 10.8c-0.4-1-1.4-1.5-2.5-1.5 -1.5 0-3 1.1-3 3.1 0 2.1 1.5 3.1 2.9 3.1 1.1 0 2.1-0.6 2.6-1.7h2.1c-0.5 2.4-2.6 3.6-4.7 3.6 -2.5 0-5-1.7-5-5s2.5-5 5-5c2.1 0 4.1 1.1 4.6 3.5L10.3 10.8 10.3 10.8z"/><path class="st1" d="M20.8 17.2v-5.7c0-1.6-0.9-2.4-2.2-2.4 -1.4 0-2.5 1-2.5 2.5v5.5H14V2.7h2.2v6.1C17 7.7 18 7.4 19.3 7.4c2.6 0 3.8 1.7 3.8 4.1v5.7H20.8z"/><path class="st1" d="M26.5 3.4c0.7 0 1.3 0.4 1.3 1.3S27.2 6 26.5 6s-1.3-0.4-1.3-1.3C25.1 3.8 25.8 3.4 26.5 3.4zM27.6 17.2h-2.2V7.7h2.2V17.2z"/><path class="st1" d="M37.1 10.8c-0.4-1-1.4-1.5-2.5-1.5 -1.5 0-3 1.1-3 3.1 0 2.1 1.5 3.1 2.9 3.1 1.1 0 2.1-0.6 2.6-1.7h2.1c-0.5 2.4-2.6 3.6-4.7 3.6 -2.5 0-5-1.7-5-5s2.5-5 5-5c2.1 0 4.1 1.1 4.6 3.5L37.1 10.8 37.1 10.8z"/><path class="st1" d="M44 11.4c2.4 0 3.3-1.5 3.3-3.7h2c0.1 2.1-0.5 3.8-2.5 4.7l3 4.7v0.2h-2.2L45 13.1c-0.3 0.1-0.7 0.1-1 0.1h-1v4.1h-2.1V2.7H43v8.7H44z"/><path class="st1" d="M59.9 12.8h-7.1c0 1.7 1.4 2.8 3.1 2.8 1.2 0.1 2.3-0.1 3.5-0.6l0.3 1.6c-1.1 0.5-2.4 0.8-3.6 0.8 -3.2 0.1-5.5-2-5.4-5.2s2.4-4.8 5-4.8C59 7.4 60.5 9.6 59.9 12.8zM52.9 11.3h5.2c0.1-1.4-1.1-2.2-2.5-2.2S53.1 9.8 52.9 11.3z"/><path class="st1" d="M69 17.2v-5.6c0-1.5-1-2.4-2.2-2.4 -1.3 0-2.4 1.1-2.4 2.6v5.4h-2.3v-6.8c0-1.1 0-1.4-1-1.4V7.6c1.4-0.3 3-0.3 3 1.5 0.5-1.2 2-1.7 3.3-1.7 2.6 0 3.8 1.8 3.8 4.1v5.6L69 17.2 69 17.2z"/></svg>