<svg xmlns="http://www.w3.org/2000/svg" viewBox="0 0 207.3 40"><style type="text/css">  
	.st0{fill:#4F100F;}
	.st1{fill:#872A23;}
	.st2{fill:#FFFFFF;}
</style><path class="st0" d="M201.5 40H5.8C2.6 40 0 37.4 0 34.3V9.8C0 6.6 2.6 4 5.8 4h195.8c3.2 0 5.8 2.6 5.8 5.8v24.5C207.3 37.4 204.7 40 201.5 40z"/><path class="st1" d="M201.5 36H5.8C2.6 36 0 33.4 0 30.3V5.8C0 2.6 2.6 0 5.8 0h195.8c3.2 0 5.8 2.6 5.8 5.8v24.5C207.3 33.4 204.7 36 201.5 36z"/><path class="st2" d="M25.8 21.5l1.2-3.3 1.3-3.2h1.6v0.2l-3.8 9h-0.6l-3.9-9V15h1.6l1.3 3.1L25.8 21.5 25.8 21.5z"/><path class="st2" d="M35 22.9v1.2h-4.4v-1.2h1.4v-6.7h-1.3V15h4.2v1.2h-1.3v6.7H35z"/><path class="st2" d="M38.1 17.9l0.1 2.9v3.3h-1.5V15h0.5l5.5 6.1 -0.1-2.8V15h1.5v9.1h-0.5L38.1 17.9z"/><path class="st2" d="M49.7 15c2.8 0 4.4 2.1 4.4 4.5s-1.6 4.6-4.4 4.6h-3.3V15H49.7zM49.7 22.7c1.9 0 3-1.5 3-3.2 0-1.7-1.1-3.2-3-3.2h-1.8v6.3H49.7z"/><path class="st2" d="M64.9 21.1c0 2-1.5 3.2-3.4 3.2 -1.9 0-3.4-1.2-3.4-3.2v-1h1.4v1c0 1.2 0.8 1.8 1.9 1.8s1.9-0.6 1.9-1.8v-4.7h-1.9V15h3.4V21.1z"/><path class="st2" d="M71.2 24.2c-2.5 0-4.6-1.7-4.6-4.7 0-3 2.2-4.7 4.6-4.7 2.5 0 4.6 1.7 4.6 4.7C75.9 22.3 73.9 24.2 71.2 24.2zM71.2 22.8c1.7 0 3.1-1.2 3.1-3.3 0-2.1-1.4-3.3-3.1-3.3 -1.7 0-3.1 1.2-3.1 3.3C68.1 21.7 69.5 22.8 71.2 22.8z"/><path class="st2" d="M77.5 21v-6H79v6c0 1.2 0.9 1.9 2.1 1.9 1.1 0 2-0.7 2-1.9v-6h1.5v6c0 2-1.6 3.2-3.5 3.2C79.1 24.2 77.5 23.1 77.5 21z"/><path class="st2" d="M92.3 15.1l2.2 6.2h0l0.9-3.3 1-3.1H98v0.2l-3 8.9h-0.8L92 18.3h0l-2.2 5.8h-0.8l-3-8.9V15h1.6l1 3.1 0.9 3.3h0l2.2-6.2H92.3z"/><path class="st2" d="M109.6 23.9v0.2h-1.5l-2.3-3.2h-2v3.2h-1.5V15h3.8c2 0 3.2 1.3 3.2 3 0 1.3-0.8 2.3-1.9 2.7L109.6 23.9zM106 19.7c1 0 1.7-0.7 1.7-1.7 0-0.9-0.7-1.7-1.7-1.7h-2.2v3.4H106z"/><path class="st2" d="M116.7 16.3h-4v2.4h3.8v1.3h-3.8v2.7h4.1v1.4h-5.6V15h5.5V16.3z"/><path class="st2" d="M119.5 21.5c0.1 1 1.2 1.4 2.2 1.4 1 0 2.1-0.3 2.1-1.4 0-1.2-1.2-1.3-2.3-1.4 -1.7-0.1-3.3-0.7-3.3-2.5 0-1.9 1.7-2.8 3.4-2.8 1.7 0 3.4 0.8 3.4 2.6h-1.4c-0.1-1-1.1-1.3-2-1.3 -0.8 0-1.9 0.3-1.9 1.4s1 1.2 2.1 1.3c1.8 0.2 3.5 0.6 3.5 2.7 0 2-1.9 2.8-3.6 2.8 -1.8 0-3.6-0.8-3.7-2.8H119.5z"/><path class="st2" d="M126 16.3V15h6.8v1.3h-2.6v7.8h-1.5v-7.8H126z"/><path class="st2" d="M134.8 22.2l-0.9 1.9h-1.6v-0.2l4.2-9h0.7l4.2 9v0.2h-1.6l-0.9-1.9H134.8zM135.3 20.9h3.2l-1.6-3.6L135.3 20.9z"/><path class="st2" d="M142.4 21v-6h1.5v6c0 1.2 0.9 1.9 2.1 1.9 1.1 0 2-0.7 2-1.9v-6h1.5v6c0 2-1.6 3.2-3.5 3.2C144 24.2 142.4 23.1 142.4 21z"/><path class="st2" d="M159 23.9v0.2h-1.5l-2.3-3.2h-2v3.2h-1.5V15h3.8c2 0 3.2 1.3 3.2 3 0 1.3-0.8 2.3-1.9 2.7L159 23.9zM155.4 19.7c1 0 1.7-0.7 1.7-1.7 0-0.9-0.7-1.7-1.7-1.7h-2.2v3.4H155.4z"/><path class="st2" d="M161.9 22.2l-0.9 1.9h-1.6v-0.2l4.2-9h0.7l4.2 9v0.2h-1.6l-0.9-1.9H161.9zM162.4 20.9h3.2l-1.6-3.6L162.4 20.9z"/><path class="st2" d="M171.1 17.9l0.1 2.9v3.3h-1.5V15h0.5l5.5 6.1 -0.1-2.8V15h1.5v9.1h-0.5L171.1 17.9z"/><path class="st2" d="M178.5 16.3V15h6.8v1.3h-2.6v7.8h-1.5v-7.8H178.5z"/></svg>