<svg xmlns="http://www.w3.org/2000/svg" viewBox="0 0 618.4 566.9"><style type="text/css">  
	.st0{fill:#264F36;}
	.st1{fill:#FFC836;}
</style><rect class="st0" width="618.4" height="566.9"/><path class="st1" d="M399.1 128.8c35.5 0 64.3 149.8 64.3 334.6l51.5 0c0-199-51.9-360.4-115.8-360.4 -36.4 0-68.9 48.5-90.1 124.3 -21.2-75.8-53.7-124.3-90.1-124.3 -64 0-115.8 161.3-115.8 360.4h51.5c0-184.8 28.8-334.6 64.3-334.6 35.5 0 64.4 138.3 64.4 308.9h51.5C334.8 267.1 363.6 128.8 399.1 128.8"/><path class="st1" d="M540.8 436.2c7.6 0 13.7 6.1 13.7 13.7s-6.1 13.7-13.7 13.7c-7.6 0-13.7-6.1-13.7-13.7S533.2 436.2 540.8 436.2zM540.8 461.6c6.2 0 11.4-5.3 11.4-11.6 0-6.3-5.2-11.6-11.4-11.6 -6.2 0-11.4 5.3-11.4 11.6C529.4 456.3 534.6 461.6 540.8 461.6zM535.8 441.9h6c3.6 0 5.3 1.5 5.3 4.5 0 3-1.9 4.3-3.9 4.6l4.5 7H545l-4.4-7h-2.4v7h-2.3V441.9zM538.1 448.9h2.8c2.2 0 3.8-0.3 3.8-2.5 0-1.7-1.5-2.4-3.6-2.4h-3V448.9z"/></svg>