<svg xmlns="http://www.w3.org/2000/svg" viewBox="0 0 618.39 566.89"><defs><style>.a{fill:#264f36;}.b{fill:#ffc836;}</style></defs><title>mcdonalds_logo</title><rect class="a" width="618.39" height="566.89"/><path class="b" d="M399.13,128.8c35.54,0,64.35,149.81,64.35,334.62H515c0-199-51.86-360.35-115.83-360.35-36.39,0-68.85,48.49-90.09,124.31-21.23-75.82-53.7-124.31-90.09-124.31-64,0-115.84,161.33-115.84,360.35H154.6c0-184.8,28.81-334.62,64.35-334.62S283.3,267.09,283.3,437.68h51.48c0-170.58,28.81-308.88,64.35-308.88"/><path class="b" d="M540.77,436.25A13.73,13.73,0,1,1,527,450,13.71,13.71,0,0,1,540.77,436.25Zm0,25.33A11.6,11.6,0,1,0,529.39,450,11.6,11.6,0,0,0,540.77,461.57Zm-5-19.67h6c3.56,0,5.32,1.5,5.32,4.51a4.3,4.3,0,0,1-3.93,4.59l4.51,7H545l-4.44-7h-2.42v7h-2.35V441.9Zm2.35,7h2.79c2.24,0,3.82-.33,3.82-2.5,0-1.69-1.5-2.38-3.59-2.38h-3v4.88Z"/></svg>