<svg xmlns="http://www.w3.org/2000/svg" viewBox="0 0 564.8 323.7"><style type="text/css">  
	.st0{fill:#FFFFFF;}
	.st1{fill:#921D17;}
</style><path class="st0" d="M282.4 323.7c156 0 282.4-72.5 282.4-161.9S438.3 0 282.4 0 0 72.5 0 161.9 126.4 323.7 282.4 323.7"/><path class="st1" d="M74.2 133h24.7v11.5H74.2v32c0 18.2 11.4 19.3 26 14.2l1.6 12.1c-24.4 7.5-43.4 1.9-43.4-26v-32.3l-14.5-1V133h14.5l1.6-22h14.2V133z"/><path class="st1" d="M120.4 101.4c4.9 0 9.6 3.2 9.6 9.5 0 6.4-4.7 9.5-9.5 9.6 -4.9 0.1-9.9-3.1-9.9-9.6C110.6 104.5 115.5 101.4 120.4 101.4zM128.4 204.1h-16.1v-70.4h16.1V204.1z"/><path class="st1" d="M162.8 133.2v79.3c0 24.2-10.8 32.6-32.6 28.6l0.6-12.1c13.7 1.9 16.1-4 16.1-16.7v-79.2H162.8zM154.5 101.4c4.9-0.1 9.9 3.1 9.9 9.5 0 6.1-4.7 9.2-9.5 9.3 -4.9 0.1-9.9-3-9.9-9.3C145 104.7 149.8 101.6 154.5 101.4z"/><path class="st1" d="M232.9 191.1c-4.7 10.5-13.1 14.5-23.6 14.5 -21.3 0.4-32.8-17.3-32.8-37.2 0-22 15.4-36.5 33.7-36.5 6.3 0 13.3 1.6 19.8 5.5V96h16.1v85.9c0 8.1-0.7 11.2 7.4 11.2l0.3 11.1c-11.1 1.9-20.8 0.9-20.8-11.1V191.1zM230.3 151.5c-5.8-4-12-5.8-17.6-5.6 -11.1 0.1-20.2 8-20.2 22.4 0 12.3 6.2 22.9 19.3 22.9 11.1 0 18.5-9 18.5-19.8V151.5z"/><path class="st1" d="M330.1 171.4h-52.6c0 13 10.2 20.7 23.2 20.7 8.9 0.4 17.4-0.7 25.8-4.4l2.1 12c-8.3 3.7-17.9 6.1-26.9 6.1 -23.5 0.4-40.8-14.6-40-38.7 0.4-23.8 17.6-35.7 36.9-35.7C323.6 131.3 334.8 147.8 330.1 171.4zM277.8 160.1h39.3c0.4-10.8-8.4-16.4-18.6-16.4C287.8 143.7 280 148.8 277.8 160.1z"/><path class="st1" d="M360.5 96v82.5c0 11.8 3.1 15.5 15.4 13.6l0.6 12.4c-21.9 3.5-31.9-2.1-31.9-25.8V96H360.5z"/><path class="st1" d="M394 101.4c4.9 0 9.6 3.2 9.6 9.5 0 6.4-4.7 9.5-9.5 9.6 -4.9 0.1-9.9-3.1-9.9-9.6C384.3 104.5 389.2 101.4 394 101.4zM402 204.1h-16.1v-70.4H402V204.1z"/><path class="st1" d="M436.4 133.2v79.3c0 24.2-10.8 32.6-32.6 28.6l0.6-12.1c13.7 1.9 16.1-4 16.1-16.7v-79.2H436.4zM428.1 101.4c4.9-0.1 9.9 3.1 9.9 9.5 0 6.1-4.7 9.2-9.5 9.3 -4.9 0.1-9.9-3-9.9-9.3C418.7 104.7 423.4 101.6 428.1 101.4z"/><path class="st1" d="M477.9 160.6c17.9 0 24.2-10.9 24.2-27.9h15.2c0.4 15.4-3.8 28.1-18.6 34.9l22.2 34.9v1.6h-16.1l-19.6-31.3c-2.2 0.6-5 0.7-7.5 0.7h-7.1v30.6h-15.9v-108h15.9v64.5H477.9z"/></svg>