<svg xmlns="http://www.w3.org/2000/svg" xmlns:xlink="http://www.w3.org/1999/xlink" viewBox="0 0 564.77 323.75"><defs><style>.a{fill:none;}.b{clip-path:url(#a);}.c{fill:#fff;}.d{fill:#921d17;}</style><clipPath id="a" transform="translate(0 0)"><rect class="a" width="564.77" height="323.75"/></clipPath></defs><title>tijdelijk_btn</title><g class="b"><path class="c" d="M282.38,323.75c156,0,282.38-72.47,282.38-161.87S438.34,0,282.38,0,0,72.47,0,161.87,126.43,323.75,282.38,323.75" transform="translate(0 0)"/></g><path class="d" d="M74.17,133H98.83v11.52H74.17v32c0,18.16,11.37,19.35,26,14.18l1.62,12.11c-24.37,7.53-43.42,1.92-43.42-26V144.55l-14.47-1V133H58.37L60,111H74.17v22Z" transform="translate(0 0)"/><path class="d" d="M120.39,101.43c4.87,0,9.6,3.25,9.6,9.45s-4.73,9.45-9.45,9.6-9.89-3.1-9.89-9.6S115.51,101.43,120.39,101.43Zm8,102.63h-16.1V133.62h16.1v70.44Z" transform="translate(0 0)"/><path class="d" d="M162.77,133.18v79.3c0,24.22-10.78,32.64-32.64,28.65L130.72,229c13.73,1.92,16.1-4,16.1-16.69V133.18h15.95Zm-8.27-31.75c4.87-.15,9.89,3.1,9.89,9.45,0,6.05-4.73,9.16-9.45,9.3s-9.89-3-9.89-9.3S149.77,101.58,154.5,101.43Z" transform="translate(0 0)"/><path class="d" d="M232.91,191.07c-4.73,10.48-13.14,14.47-23.63,14.47C188,206,176.5,188.26,176.5,168.33c0-22,15.36-36.48,33.67-36.48A39,39,0,0,1,230,137.31V96h16.1v85.95c0,8.12-.74,11.22,7.38,11.22l0.3,11.08c-11.08,1.92-20.82.89-20.82-11.08v-2.07Zm-2.66-39.58a29.77,29.77,0,0,0-17.57-5.61c-11.08.15-20.23,8-20.23,22.45,0,12.26,6.2,22.89,19.35,22.89,11.08,0,18.46-9,18.46-19.79V151.49Z" transform="translate(0 0)"/><path class="d" d="M330.08,171.43H277.51c0,13,10.19,20.67,23.19,20.67a56,56,0,0,0,25.84-4.43l2.07,12a67.91,67.91,0,0,1-26.88,6.05c-23.48.44-40.76-14.62-40-38.69,0.44-23.78,17.57-35.74,36.92-35.74C323.59,131.26,334.81,147.8,330.08,171.43Zm-52.28-11.37h39.28c0.44-10.78-8.42-16.39-18.61-16.39C287.85,143.66,280,148.83,277.81,160.06Z" transform="translate(0 0)"/><path class="d" d="M360.5,96v82.55c0,11.81,3.1,15.51,15.36,13.59l0.59,12.41c-21.86,3.54-31.9-2.07-31.9-25.84V96H360.5Z" transform="translate(0 0)"/><path class="d" d="M394,101.43c4.87,0,9.6,3.25,9.6,9.45s-4.73,9.45-9.45,9.6-9.89-3.1-9.89-9.6S389.15,101.43,394,101.43Zm8,102.63H385.9V133.62H402v70.44Z" transform="translate(0 0)"/><path class="d" d="M436.41,133.18v79.3c0,24.22-10.78,32.64-32.64,28.65L404.36,229c13.73,1.92,16.1-4,16.1-16.69V133.18h15.95Zm-8.27-31.75c4.87-.15,9.89,3.1,9.89,9.45,0,6.05-4.73,9.16-9.45,9.3s-9.89-3-9.89-9.3S423.41,101.58,428.14,101.43Z" transform="translate(0 0)"/><path class="d" d="M477.9,160.65c17.87,0,24.22-10.93,24.22-27.91h15.21c0.44,15.36-3.84,28.06-18.61,34.85l22.15,34.85v1.62h-16.1l-19.64-31.31a31.1,31.1,0,0,1-7.53.74h-7.09v30.57H454.57v-108h15.95v64.53h7.38Z" transform="translate(0 0)"/></svg>