<svg xmlns="http://www.w3.org/2000/svg" xmlns:xlink="http://www.w3.org/1999/xlink" viewBox="0 0 564.77 323.75"><defs><style>.a{fill:none;}.b{clip-path:url(#a);}.c{fill:#fff;}.d{fill:#921d17;}</style><clipPath id="a" transform="translate(0 0)"><rect class="a" width="564.77" height="323.75"/></clipPath></defs><title>tijdelijk_btn-back</title><g class="b"><path class="c" d="M282.38,323.75C126.43,323.75,0,251.27,0,161.87S126.43,0,282.38,0,564.77,72.47,564.77,161.87,438.34,323.75,282.38,323.75" transform="translate(0 0)"/></g><path class="d" d="M490.6,111h14.18l1.62,22h14.47v10.48l-14.47,1v32.34c0,27.91-19,33.52-43.42,26l1.62-12.11c14.62,5.17,26,4,26-14.18v-32H465.94V133H490.6V111Z" transform="translate(0 0)"/><path class="d" d="M454.13,110.88c0,6.5-5,9.75-9.89,9.6s-9.45-3.25-9.45-9.6,4.73-9.45,9.6-9.45S454.13,104.53,454.13,110.88Zm-17.72,22.74h16.1v70.44h-16.1V133.62Z" transform="translate(0 0)"/><path class="d" d="M417.95,133.18v79.15c0,12.7,2.36,18.61,16.1,16.69l0.59,12.11c-21.86,4-32.64-4.43-32.64-28.65v-79.3h15.95Zm1.77-22.3c0,6.35-5,9.45-9.89,9.3s-9.45-3.25-9.45-9.3c0-6.35,5-9.6,9.89-9.45S419.72,104.68,419.72,110.88Z" transform="translate(0 0)"/><path class="d" d="M331.85,193.14c0,12-9.75,13-20.82,11.08l0.3-11.08c8.12,0,7.38-3.1,7.38-11.22V96h16.1v41.35a39,39,0,0,1,19.79-5.46c18.31,0,33.67,14.47,33.67,36.48,0,19.94-11.52,37.66-32.78,37.21-10.48,0-18.9-4-23.63-14.47v2.07Zm2.66-21.71c0,10.78,7.38,19.79,18.46,19.79,13.14,0,19.35-10.63,19.35-22.89,0-14.47-9.16-22.3-20.23-22.45a29.77,29.77,0,0,0-17.57,5.61v19.94Z" transform="translate(0 0)"/><path class="d" d="M266.14,131.26c19.35,0,36.48,12,36.92,35.74,0.74,24.07-16.54,39.13-40,38.69a67.91,67.91,0,0,1-26.88-6.05l2.07-12a56,56,0,0,0,25.84,4.43c13,0,23.19-7.68,23.19-20.67H234.69C230,147.8,241.18,131.26,266.14,131.26Zm0.15,12.4c-10.19,0-19.05,5.61-18.61,16.39H287C284.75,148.83,276.92,143.66,266.29,143.66Z" transform="translate(0 0)"/><path class="d" d="M220.21,96v82.7c0,23.78-10,29.39-31.9,25.84l0.59-12.41c12.26,1.92,15.36-1.77,15.36-13.59V96h15.95Z" transform="translate(0 0)"/><path class="d" d="M180.49,110.88c0,6.5-5,9.75-9.89,9.6s-9.45-3.25-9.45-9.6,4.73-9.45,9.6-9.45S180.49,104.53,180.49,110.88Zm-17.72,22.74h16.1v70.44h-16.1V133.62Z" transform="translate(0 0)"/><path class="d" d="M144.31,133.18v79.15c0,12.7,2.36,18.61,16.1,16.69L161,241.13c-21.86,4-32.64-4.43-32.64-28.65v-79.3h15.95Zm1.77-22.3c0,6.35-5,9.45-9.89,9.3s-9.45-3.25-9.45-9.3c0-6.35,5-9.6,9.89-9.45S146.08,104.68,146.08,110.88Z" transform="translate(0 0)"/><path class="d" d="M94.25,160.65V96.11H110.2v108H94.25V173.5H87.16a31.1,31.1,0,0,1-7.53-.74L60,204.06H43.89v-1.62L66,167.59c-14.77-6.79-19-19.49-18.61-34.85H62.65c0,17,6.35,27.91,24.22,27.91h7.38Z" transform="translate(0 0)"/></svg>