<svg xmlns="http://www.w3.org/2000/svg" viewBox="0 0 83.54 24.48"><defs><style>.a{fill:#fff;}</style></defs><title>vindRestaurant_btn</title><path class="a" d="M5.91,5.27L6.65,2.89l1.12-2.7H10.3V0.53L6.38,9.36h-1l-4-8.83V0.18H4L5.1,2.89,5.87,5.27h0Z"/><path class="a" d="M15.59,7.36V9.28H10.9V7.36h1.16V2.11H11V0.18h4.49V2.11H14.44V7.36h1.16Z"/><path class="a" d="M19.57,4.59V9.28H17.19V0.14h0.74l4.75,4.48V0.18h2.38V9.3h-0.7Z"/><path class="a" d="M30.49,0.19A4.35,4.35,0,0,1,35,4.69a4.34,4.34,0,0,1-4.49,4.59H27V0.19h3.47Zm0,6.94A2.19,2.19,0,0,0,32.6,4.72a2.2,2.2,0,0,0-2.13-2.39H29.4V7.14h1.07Z"/><path class="a" d="M45.53,6.28c0,2-1.64,3.12-3.51,3.12a3.14,3.14,0,0,1-3.45-3.12V5.1h2.21V6.24A1.06,1.06,0,0,0,42,7.31a1,1,0,0,0,1.14-1.07v-4H41.81v-2h3.72v6.1Z"/><path class="a" d="M51.58,9.44a4.44,4.44,0,0,1-4.65-4.71,4.67,4.67,0,1,1,9.33,0A4.48,4.48,0,0,1,51.58,9.44Zm0-2.24a2.3,2.3,0,0,0,2.29-2.47,2.29,2.29,0,1,0-4.58,0A2.28,2.28,0,0,0,51.59,7.2Z"/><path class="a" d="M57.65,6.28V0.18H60v6a1.35,1.35,0,0,0,2.65,0v-6H65v6.1c0,2-1.77,3.11-3.68,3.11S57.65,8.32,57.65,6.28Z"/><path class="a" d="M72.6,0.34l1.6,5h0l0.64-2.65,0.85-2.48h2.5V0.53L75,9.36H73.7L72.13,5.21h0L70.58,9.36H69.26L66,0.53V0.18h2.5l0.86,2.48,0.69,2.65h0l1.53-5h1Z"/><path class="a" d="M7.71,23.93v0.34H5.19L3.63,21.42H2.38v2.85H0v-9.1H4a3.12,3.12,0,0,1,3.28,3.22A3.16,3.16,0,0,1,5.93,21ZM4,19.48a1,1,0,0,0,1-1.14,1,1,0,0,0-1-1.1H2.34v2.25H4Z"/><path class="a" d="M14.72,17.25h-3.3v1.3h3v2.08h-3v1.48h3.42v2.17H9v-9.1h5.68v2.07Z"/><path class="a" d="M18.28,21.49a1.23,1.23,0,0,0,1.44.94,1.23,1.23,0,0,0,1.39-.86c0-.87-1-0.91-1.68-0.95-1.66-.1-3.33-0.77-3.33-2.67s1.68-3,3.54-3,3.54,1,3.5,3H20.92a1,1,0,0,0-1.24-.88,1,1,0,0,0-1.23.83c0,0.61.52,0.77,1.39,0.85,1.94,0.18,3.63.62,3.63,2.83,0,1.91-1.86,2.9-3.72,2.9s-3.77-.95-3.73-3h2.26Z"/><path class="a" d="M24.12,17.26V15.18h6.76v2.08H28.65v7h-2.3v-7H24.12Z"/><path class="a" d="M33.25,23.15l-0.52,1.13H30.26V24l4.16-8.87h1.09L39.65,24v0.33H37.19l-0.53-1.13H33.25Zm0.77-2h1.88L35,19Z"/><path class="a" d="M40.29,21.28v-6.1h2.38v6a1.35,1.35,0,0,0,2.65,0v-6h2.35v6.1c0,2-1.77,3.11-3.68,3.11S40.29,23.32,40.29,21.28Z"/><path class="a" d="M57.27,23.93v0.34H54.74l-1.56-2.85H51.94v2.85H49.56v-9.1h4a3.12,3.12,0,0,1,3.28,3.22A3.16,3.16,0,0,1,55.48,21Zm-3.72-4.45a1,1,0,0,0,1-1.14,1,1,0,0,0-1-1.1H51.9v2.25h1.65Z"/><path class="a" d="M60.46,23.15l-0.52,1.13H57.47V24l4.16-8.87h1.09L66.86,24v0.33H64.4l-0.53-1.13H60.46Zm0.77-2h1.88L62.17,19Z"/><path class="a" d="M70.07,19.59v4.69H67.69V15.14h0.74l4.75,4.48V15.18h2.38V24.3h-0.7Z"/><path class="a" d="M76.78,17.26V15.18h6.76v2.08H81.31v7H79v-7H76.78Z"/></svg>